<?xml version="1.0" encoding="UTF-8" standalone="no"?>
<!-- Created with Inkscape (http://www.inkscape.org/) -->

<svg
   width="210mm"
   height="297mm"
   viewBox="0 0 210 297"
   version="1.1"
   id="svg1"
   inkscape:version="1.4 (86a8ad7, 2024-10-11)"
   sodipodi:docname="II.svg"
   inkscape:export-filename="I.svg"
   inkscape:export-xdpi="8.5521889"
   inkscape:export-ydpi="8.5521889"
   xmlns:inkscape="http://www.inkscape.org/namespaces/inkscape"
   xmlns:sodipodi="http://sodipodi.sourceforge.net/DTD/sodipodi-0.dtd"
   xmlns="http://www.w3.org/2000/svg"
   xmlns:svg="http://www.w3.org/2000/svg">
  <sodipodi:namedview
     id="namedview1"
     pagecolor="#ffffff"
     bordercolor="#000000"
     borderopacity="0.25"
     inkscape:showpageshadow="2"
     inkscape:pageopacity="0.0"
     inkscape:pagecheckerboard="0"
     inkscape:deskcolor="#d1d1d1"
     inkscape:document-units="mm"
     inkscape:export-bgcolor="#ffffff00"
     inkscape:zoom="0.51339147"
     inkscape:cx="357.42705"
     inkscape:cy="452.87079"
     inkscape:window-width="1920"
     inkscape:window-height="1017"
     inkscape:window-x="2552"
     inkscape:window-y="-8"
     inkscape:window-maximized="1"
     inkscape:current-layer="layer1" />
  <defs
     id="defs1" />
  <g
     inkscape:label="Capa 1"
     inkscape:groupmode="layer"
     id="layer1">
    <path
       style="fill:#000000;stroke-width:0"
       d="M 67.102467,122.44417 87.850973,242.33742"
       id="path3" />
    <path
       style="fill:#000000;stroke-width:0"
       d="m 47.445982,92.561963 59.151448,1.093251"
       id="path4" />
    <path
       style="fill:#000000;stroke-width:0"
       d="m 21.358875,30.40813 c 82.927965,-10.643199 83.711715,3.024213 83.711715,3.024213 L 107.08662,55.7839 21.005439,53.513348 Z"
       id="path5" />
    <path
       style="fill:#000000;stroke-width:0"
       d="m 19.51008,244.96655 c 82.92796,-10.6432 83.71171,3.02421 83.71171,3.02421 l 2.01603,22.35155 -86.081177,-2.27058 z"
       id="path5-7" />
    <path
       style="fill:#000000;stroke-width:0"
       d="M 52.663223,258.06006 C 39.354114,45.080518 53.830857,43.160398 53.830857,43.160398 L 77.488181,38.135059 77.177548,259.12313 Z"
       id="path5-5-1" />
    <path
       style="fill:#000000;stroke-width:0"
       d="M 143.8731,261.53592 C 130.56399,48.556383 145.04074,46.636263 145.04074,46.636263 l 23.65732,-5.025339 -0.31063,220.988066 z"
       id="path5-5-1-1" />
    <path
       style="fill:#000000;stroke-width:0"
       d="m 159.01794,123.42691 20.74851,119.89325"
       id="path3-1" />
    <path
       style="fill:#000000;stroke-width:0"
       d="m 139.36146,93.544701 59.15145,1.09325"
       id="path4-1" />
    <path
       style="fill:#000000;stroke-width:0"
       d="m 113.27435,31.390868 c 82.92797,-10.643199 83.71172,3.024213 83.71172,3.024213 l 2.01603,22.35156 -86.08118,-2.27055 z"
       id="path5-5" />
    <path
       style="fill:#000000;stroke-width:0"
       d="m 111.42555,245.94929 c 82.92797,-10.6432 83.71172,3.02421 83.71172,3.02421 l 2.01603,22.35155 -86.08118,-2.27058 z"
       id="path5-7-2" />
  </g>
</svg>
