<?xml version="1.0" encoding="UTF-8" standalone="no"?>
<!-- Created with Inkscape (http://www.inkscape.org/) -->

<svg
   width="210mm"
   height="297mm"
   viewBox="0 0 210 297"
   version="1.1"
   id="svg1"
   inkscape:version="1.4 (86a8ad7, 2024-10-11)"
   sodipodi:docname="III.svg"
   inkscape:export-filename="I.svg"
   inkscape:export-xdpi="8.5521889"
   inkscape:export-ydpi="8.5521889"
   xmlns:inkscape="http://www.inkscape.org/namespaces/inkscape"
   xmlns:sodipodi="http://sodipodi.sourceforge.net/DTD/sodipodi-0.dtd"
   xmlns="http://www.w3.org/2000/svg"
   xmlns:svg="http://www.w3.org/2000/svg">
  <sodipodi:namedview
     id="namedview1"
     pagecolor="#ffffff"
     bordercolor="#000000"
     borderopacity="0.25"
     inkscape:showpageshadow="2"
     inkscape:pageopacity="0.0"
     inkscape:pagecheckerboard="0"
     inkscape:deskcolor="#d1d1d1"
     inkscape:document-units="mm"
     inkscape:export-bgcolor="#ffffff00"
     inkscape:zoom="0.51339147"
     inkscape:cx="357.42705"
     inkscape:cy="452.87079"
     inkscape:window-width="1920"
     inkscape:window-height="1017"
     inkscape:window-x="2552"
     inkscape:window-y="-8"
     inkscape:window-maximized="1"
     inkscape:current-layer="layer1" />
  <defs
     id="defs1" />
  <g
     inkscape:label="Capa 1"
     inkscape:groupmode="layer"
     id="layer1">
    <path
       style="fill:#000000;stroke-width:0"
       d="M 49.241355,122.44417 62.260483,242.33742"
       id="path3" />
    <path
       style="fill:#000000;stroke-width:0"
       d="m 36.90744,92.561963 37.115939,1.093251"
       id="path4" />
    <path
       style="fill:#000000;stroke-width:0"
       d="M 20.538484,34.806865 C 72.573546,26.0086 73.065328,37.306849 73.065328,37.306849 L 74.330332,55.7839 20.316713,53.906934 Z"
       id="path5" />
    <path
       style="fill:#000000;stroke-width:0"
       d="m 19.378415,244.163 c 52.035059,-8.5347 52.526841,2.42509 52.526841,2.42509 l 1.265004,17.92355 -54.013617,-1.82077 z"
       id="path5-7" />
    <path
       style="fill:#000000;stroke-width:0"
       d="M 36.79448,258.57542 C 25.430859,45.595882 37.791434,43.675762 37.791434,43.675762 L 57.9906,38.650423 57.725374,259.63849 Z"
       id="path5-5-1" />
    <path
       style="fill:#000000;stroke-width:0"
       d="m 109.80711,125.03442 13.01913,119.89325"
       id="path3-7" />
    <path
       style="fill:#000000;stroke-width:0"
       d="m 97.473198,95.152217 37.115942,1.093251"
       id="path4-6" />
    <path
       style="fill:#000000;stroke-width:0"
       d="m 81.104242,37.397119 c 52.035068,-8.798265 52.526848,2.499984 52.526848,2.499984 l 1.265,18.477051 -54.013619,-1.876966 z"
       id="path5-1" />
    <path
       style="fill:#000000;stroke-width:0"
       d="m 79.944173,246.75325 c 52.035057,-8.5347 52.526847,2.42509 52.526847,2.42509 l 1.265,17.92355 -54.013619,-1.82077 z"
       id="path5-7-8" />
    <path
       style="fill:#000000;stroke-width:0"
       d="M 97.360238,261.16567 C 85.996617,48.186136 98.357188,46.266016 98.357188,46.266016 l 20.199172,-5.025339 -0.26523,220.988063 z"
       id="path5-5-1-9" />
    <path
       style="fill:#000000;stroke-width:0"
       d="m 172.59866,127.52361 13.01913,119.89325"
       id="path3-5" />
    <path
       style="fill:#000000;stroke-width:0"
       d="m 160.26475,97.641404 37.11594,1.093251"
       id="path4-4" />
    <path
       style="fill:#000000;stroke-width:0"
       d="m 143.8958,39.886306 c 52.03506,-8.798265 52.52684,2.499984 52.52684,2.499984 l 1.265,18.477051 -54.01361,-1.876966 z"
       id="path5-3" />
    <path
       style="fill:#000000;stroke-width:0"
       d="m 142.73573,249.24244 c 52.03505,-8.5347 52.52684,2.42509 52.52684,2.42509 l 1.265,17.92355 -54.01361,-1.82077 z"
       id="path5-7-1" />
    <path
       style="fill:#000000;stroke-width:0"
       d="M 160.15179,263.65486 C 148.78817,50.675323 161.14875,48.755203 161.14875,48.755203 l 20.19916,-5.025339 -0.26523,220.988066 z"
       id="path5-5-1-2" />
  </g>
</svg>
