<?xml version="1.0" encoding="UTF-8" standalone="no"?>
<!-- Created with Inkscape (http://www.inkscape.org/) -->

<svg
   width="210mm"
   height="297mm"
   viewBox="0 0 210 297"
   version="1.1"
   id="svg1"
   inkscape:version="1.4 (86a8ad7, 2024-10-11)"
   sodipodi:docname="IV.svg"
   inkscape:export-filename="I.svg"
   inkscape:export-xdpi="8.5521889"
   inkscape:export-ydpi="8.5521889"
   xmlns:inkscape="http://www.inkscape.org/namespaces/inkscape"
   xmlns:sodipodi="http://sodipodi.sourceforge.net/DTD/sodipodi-0.dtd"
   xmlns="http://www.w3.org/2000/svg"
   xmlns:svg="http://www.w3.org/2000/svg">
  <sodipodi:namedview
     id="namedview1"
     pagecolor="#ffffff"
     bordercolor="#000000"
     borderopacity="0.25"
     inkscape:showpageshadow="2"
     inkscape:pageopacity="0.0"
     inkscape:pagecheckerboard="0"
     inkscape:deskcolor="#d1d1d1"
     inkscape:document-units="mm"
     inkscape:export-bgcolor="#ffffff00"
     inkscape:zoom="0.51339147"
     inkscape:cx="357.42705"
     inkscape:cy="452.87079"
     inkscape:window-width="1920"
     inkscape:window-height="1017"
     inkscape:window-x="2552"
     inkscape:window-y="-8"
     inkscape:window-maximized="1"
     inkscape:current-layer="layer1" />
  <defs
     id="defs1" />
  <g
     inkscape:label="Capa 1"
     inkscape:groupmode="layer"
     id="layer1">
    <path
       style="fill:#000000;stroke-width:0"
       d="M 56.795193,125.02099 77.543699,244.91424"
       id="path3" />
    <path
       style="fill:#000000;stroke-width:0"
       d="m 37.138708,95.138782 59.151448,1.093251"
       id="path4" />
    <path
       style="fill:#000000;stroke-width:0"
       d="m 11.051601,32.984949 c 82.927965,-10.643199 83.711715,3.024213 83.711715,3.024213 l 2.01603,22.351557 -86.081181,-2.270552 z"
       id="path5" />
    <path
       style="fill:#000000;stroke-width:0"
       d="m 9.2028058,247.54337 c 82.9279602,-10.6432 83.7117102,3.02421 83.7117102,3.02421 l 2.01603,22.35155 -86.0811772,-2.27058 z"
       id="path5-7" />
    <path
       style="fill:#000000;stroke-width:0"
       d="M 42.355949,260.63688 C 29.04684,47.657337 43.523583,45.737217 43.523583,45.737217 L 67.180907,40.711878 66.870274,261.69995 Z"
       id="path5-5-1" />
    <path
       style="fill:#000000;stroke-width:0"
       d="m 139.36146,93.544701 59.15145,1.09325"
       id="path4-1" />
    <path
       style="fill:#000000;stroke-width:0"
       d="m 100.2059,24.94927 c 0,0 14.84058,217.53354 41.97764,253.99513 27.13705,36.4616 61.9064,-257.085098 61.9064,-257.085098 L 150.23985,194.89738 Z"
       id="path11" />
  </g>
</svg>
