<?xml version="1.0" encoding="UTF-8" standalone="no"?>
<!-- Created with Inkscape (http://www.inkscape.org/) -->

<svg
   width="210mm"
   height="297mm"
   viewBox="0 0 210 297"
   version="1.1"
   id="svg1"
   inkscape:version="1.4 (86a8ad7, 2024-10-11)"
   sodipodi:docname="VI.svg"
   inkscape:export-filename="I.svg"
   inkscape:export-xdpi="8.5521889"
   inkscape:export-ydpi="8.5521889"
   xmlns:inkscape="http://www.inkscape.org/namespaces/inkscape"
   xmlns:sodipodi="http://sodipodi.sourceforge.net/DTD/sodipodi-0.dtd"
   xmlns="http://www.w3.org/2000/svg"
   xmlns:svg="http://www.w3.org/2000/svg">
  <sodipodi:namedview
     id="namedview1"
     pagecolor="#ffffff"
     bordercolor="#000000"
     borderopacity="0.25"
     inkscape:showpageshadow="2"
     inkscape:pageopacity="0.0"
     inkscape:pagecheckerboard="0"
     inkscape:deskcolor="#d1d1d1"
     inkscape:document-units="mm"
     inkscape:export-bgcolor="#ffffff00"
     inkscape:zoom="0.51339147"
     inkscape:cx="357.42705"
     inkscape:cy="452.87079"
     inkscape:window-width="1920"
     inkscape:window-height="1017"
     inkscape:window-x="2552"
     inkscape:window-y="-8"
     inkscape:window-maximized="1"
     inkscape:current-layer="layer1" />
  <defs
     id="defs1" />
  <g
     inkscape:label="Capa 1"
     inkscape:groupmode="layer"
     id="layer1">
    <path
       style="fill:#000000;stroke-width:0"
       d="m 155.74503,126.05172 20.7485,119.89325"
       id="path3" />
    <path
       style="fill:#000000;stroke-width:0"
       d="m 136.08854,96.169509 59.15145,1.093251"
       id="path4" />
    <path
       style="fill:#000000;stroke-width:0"
       d="m 110.00143,34.015676 c 82.92797,-10.643199 83.71172,3.024213 83.71172,3.024213 l 2.01603,22.351557 -86.08118,-2.270552 z"
       id="path5" />
    <path
       style="fill:#000000;stroke-width:0"
       d="m 108.15264,248.5741 c 82.92796,-10.6432 83.71171,3.02421 83.71171,3.02421 l 2.01603,22.35155 -86.08118,-2.27058 z"
       id="path5-7" />
    <path
       style="fill:#000000;stroke-width:0"
       d="M 141.30578,261.66761 C 127.99667,48.688064 142.47342,46.767944 142.47342,46.767944 l 23.65732,-5.025339 -0.31063,220.988075 z"
       id="path5-5-1" />
    <path
       style="fill:#000000;stroke-width:0"
       d="m 139.36146,93.544701 59.15145,1.09325"
       id="path4-1" />
    <path
       style="fill:#000000;stroke-width:0"
       d="m 4.3482542,18.249541 c 0,0 14.8405798,217.533549 41.9776398,253.995139 C 73.46294,308.70628 108.23229,15.159573 108.23229,15.159573 L 54.382204,188.19766 Z"
       id="path11" />
  </g>
</svg>
