<?xml version="1.0" encoding="UTF-8" standalone="no"?>
<!-- Created with Inkscape (http://www.inkscape.org/) -->

<svg
   width="210mm"
   height="297mm"
   viewBox="0 0 210 297"
   version="1.1"
   id="svg1"
   inkscape:version="1.4 (86a8ad7, 2024-10-11)"
   sodipodi:docname="VII.svg"
   inkscape:export-filename="I.svg"
   inkscape:export-xdpi="8.5521889"
   inkscape:export-ydpi="8.5521889"
   xmlns:inkscape="http://www.inkscape.org/namespaces/inkscape"
   xmlns:sodipodi="http://sodipodi.sourceforge.net/DTD/sodipodi-0.dtd"
   xmlns="http://www.w3.org/2000/svg"
   xmlns:svg="http://www.w3.org/2000/svg">
  <sodipodi:namedview
     id="namedview1"
     pagecolor="#ffffff"
     bordercolor="#000000"
     borderopacity="0.25"
     inkscape:showpageshadow="2"
     inkscape:pageopacity="0.0"
     inkscape:pagecheckerboard="0"
     inkscape:deskcolor="#d1d1d1"
     inkscape:document-units="mm"
     inkscape:export-bgcolor="#ffffff00"
     inkscape:zoom="0.51339147"
     inkscape:cx="357.42705"
     inkscape:cy="452.87079"
     inkscape:window-width="1920"
     inkscape:window-height="1017"
     inkscape:window-x="2552"
     inkscape:window-y="-8"
     inkscape:window-maximized="1"
     inkscape:current-layer="layer1" />
  <defs
     id="defs1" />
  <g
     inkscape:label="Capa 1"
     inkscape:groupmode="layer"
     id="layer1">
    <path
       style="fill:#000000;stroke-width:0"
       d="M 107.63742,126.05172 121.7929,245.94497"
       id="path3" />
    <path
       style="fill:#000000;stroke-width:0"
       d="M 94.226943,96.169509 134.58252,97.26276"
       id="path4" />
    <path
       style="fill:#000000;stroke-width:0"
       d="m 76.429234,34.015676 c 56.576906,-10.643199 57.111606,3.024213 57.111606,3.024213 l 1.37542,22.351557 -58.72815,-2.270552 z"
       id="path5" />
    <path
       style="fill:#000000;stroke-width:0"
       d="m 75.167913,248.5741 c 56.576897,-10.6432 57.111597,3.02421 57.111597,3.02421 l 1.37542,22.35155 -58.728148,-2.27058 z"
       id="path5-7" />
    <path
       style="fill:#000000;stroke-width:0"
       d="M 93.31612,261.66761 C 80.181742,48.688064 94.468425,46.767944 94.468425,46.767944 l 23.346745,-5.025339 -0.30656,220.988075 z"
       id="path5-5-1" />
    <path
       style="fill:#000000;stroke-width:0"
       d="m 141.65578,35.686231 c 56.5769,-10.64319 57.1116,3.02422 57.1116,3.02422 l 1.37542,22.35155 -58.72815,-2.27055 z"
       id="path5-8" />
    <path
       style="fill:#000000;stroke-width:0"
       d="m 140.39446,250.24466 c 56.57689,-10.6432 57.11159,3.02421 57.11159,3.02421 l 1.37542,22.35155 -58.72814,-2.27058 z"
       id="path5-7-6" />
    <path
       style="fill:#000000;stroke-width:0"
       d="M 160.31843,262.82281 C 147.85979,49.843257 161.41147,47.923137 161.41147,47.923137 l 22.1456,-5.02534 -0.29079,220.988083 z"
       id="path5-5-1-5" />
    <path
       style="fill:#000000;stroke-width:0"
       d="m 139.36146,93.544701 59.15145,1.09325"
       id="path4-1" />
    <path
       style="fill:#000000;stroke-width:0"
       d="m 4.3482542,18.249541 c 0,0 9.9776118,217.533549 28.2223898,253.995139 C 50.815411,308.70628 74.191527,15.159573 74.191527,15.159573 L 37.987059,188.19766 Z"
       id="path11" />
  </g>
</svg>
