<?xml version="1.0" encoding="UTF-8" standalone="no"?>
<!-- Created with Inkscape (http://www.inkscape.org/) -->

<svg
   width="210mm"
   height="297mm"
   viewBox="0 0 210 297"
   version="1.1"
   id="svg1"
   inkscape:version="1.4 (86a8ad7, 2024-10-11)"
   sodipodi:docname="vm.svg"
   inkscape:export-filename="I.svg"
   inkscape:export-xdpi="8.5521889"
   inkscape:export-ydpi="8.5521889"
   xmlns:inkscape="http://www.inkscape.org/namespaces/inkscape"
   xmlns:sodipodi="http://sodipodi.sourceforge.net/DTD/sodipodi-0.dtd"
   xmlns="http://www.w3.org/2000/svg"
   xmlns:svg="http://www.w3.org/2000/svg">
  <sodipodi:namedview
     id="namedview1"
     pagecolor="#ffffff"
     bordercolor="#000000"
     borderopacity="0.25"
     inkscape:showpageshadow="2"
     inkscape:pageopacity="0.0"
     inkscape:pagecheckerboard="0"
     inkscape:deskcolor="#d1d1d1"
     inkscape:document-units="mm"
     inkscape:export-bgcolor="#ffffff00"
     inkscape:zoom="0.25669574"
     inkscape:cx="-1283.6209"
     inkscape:cy="259.06157"
     inkscape:window-width="1920"
     inkscape:window-height="1017"
     inkscape:window-x="2552"
     inkscape:window-y="-8"
     inkscape:window-maximized="1"
     inkscape:current-layer="layer1" />
  <defs
     id="defs1" />
  <g
     inkscape:label="Capa 1"
     inkscape:groupmode="layer"
     id="layer1">
    <path
       style="fill:#000000;stroke-width:0"
       d="m 163.04056,113.71929 17.8299,133.45762"
       id="path3" />
    <path
       style="fill:#000000;stroke-width:0"
       d="m 146.14907,80.456296 50.83087,1.216937"
       id="path4" />
    <path
       style="fill:#000000;stroke-width:0"
       d="m 115.05115,43.394248 -8.76118,-9.752399 z"
       id="path2" />
    <path
       style="fill:#000000;stroke-width:0"
       d="m 111.44361,37.083872 c 3.60754,24.667829 3.60754,24.667829 3.60754,24.667829"
       id="path6" />
    <circle
       id="path10"
       style="fill:#000000;stroke:#000000;stroke-width:0.264583"
       cx="20.042944"
       cy="51.018406"
       r="0" />
    <path
       style="fill:#000000;stroke-width:0"
       d="m 48.467484,96.981641 c 0,0 16.919368,157.215379 47.857641,183.566819 C 127.2634,306.8999 166.90306,94.748473 166.90306,94.748473 L 105.50993,219.80618 Z"
       id="path11" />
    <path
       style="fill:#000000;fill-opacity:0;stroke:#000000;stroke-width:0"
       d="m 133.01227,252.90552 c 0.15583,4.79989 0.54662,9.58779 0.54662,14.39447 0,0.30369 -0.0144,-0.60769 0,-0.91104 0.0463,-0.97258 0.0378,-1.95243 0.18221,-2.91534 0.22087,-1.47249 0.44019,-2.96044 0.91105,-4.373 1.38323,-4.1497 4.25531,-8.08988 7.83496,-10.5681 0.4604,-0.31873 0.3068,1.08289 0.36442,1.63988 0.12562,1.2143 0.25389,2.4284 0.36442,3.64417 0.47195,2.83565 0.30908,5.71327 0.54662,8.5638 0.0663,0.7961 0.2172,1.58354 0.36442,2.3687 0.0354,0.18879 0,0.48591 0.18221,0.54663 0.16297,0.0543 0.28759,-0.21076 0.36442,-0.36441 0.41372,-0.82744 0.68965,-1.71849 1.09325,-2.55092 0.91852,-1.89445 2.7528,-5.39315 4.1908,-6.92392 1.68756,-1.79644 5.9346,-5.31322 8.38159,-2.18651 0.61735,0.78884 0.59104,1.92318 0.72884,2.91534 0.74808,5.3862 1.09325,9.08283 1.09325,14.03006 0,0.18222 -0.0136,-0.36491 0,-0.54663 0.16862,-2.2483 0.18188,-4.51681 0.54662,-6.74171 0.24564,-1.49841 0.58493,-3.02071 1.27546,-4.37301 0.78999,-1.54707 1.92375,-2.91029 3.09755,-4.19079 0.86096,-0.93924 1.53414,0.38238 1.63988,0.91104 0.21866,1.09334 0.1822,2.17879 0.1822,3.27975"
       id="path1" />
    <path
       style="fill:#000000;fill-opacity:0;stroke:#000000;stroke-width:0"
       id="path5"
       d="m 133.2481,249.86551 c 0.18396,2.32043 0.0961,4.64976 0.0288,6.97365 -0.0592,1.84748 -0.11108,3.69532 -0.19469,5.54192 -0.0509,1.12486 -0.0751,2.25421 -0.27243,3.36411 -0.93915,2.69047 -0.26312,0.56108 7.9011,0.0466 0.11897,-0.007 0.003,-0.23844 0.009,-0.35751 0.0236,-0.45529 0.0756,-0.9091 0.12149,-1.3625 0.11214,-0.88512 0.087,-1.77717 0.12886,-2.66683 0.28686,-2.46842 1.22661,-4.82111 2.4361,-6.97771 0.35769,-0.6378 0.76554,-1.24613 1.14831,-1.8692 1.68645,-2.28388 0.8219,-1.19552 2.58448,-3.27232 0,0 -7.23395,-0.49469 -7.23395,-0.49469 v 0 c -1.6755,2.15126 -0.83807,1.02923 -2.50453,3.37185 -0.39412,0.63897 -0.80623,1.26719 -1.18236,1.91691 -1.31107,2.26473 -2.4732,4.6816 -3.00375,7.25796 -0.11094,0.88504 -0.17564,1.77137 -0.20746,2.66273 -0.0361,0.44492 -0.0693,0.89143 -0.15534,1.33035 -0.0221,0.11274 -0.19681,0.32753 -0.0821,0.33478 8.41428,0.53168 9.94867,1.83319 7.81285,0.0729 -0.0399,-0.19764 -0.10258,-0.39203 -0.11982,-0.59293 -0.0409,-0.47693 -0.0445,-2.38133 -0.0425,-2.7444 0.01,-1.84396 0.0739,-3.68735 0.17573,-5.52843 0.14692,-2.33934 0.32311,-4.67548 0.56172,-7.0072 z" />
    <path
       style="fill:#000000;fill-opacity:1;stroke:#000000;stroke-width:0"
       id="path7"
       d="m 121.68207,262.79616 c 0.17093,0.36379 0.4347,0.9186 0.54466,1.21766 0.73529,1.99972 1.21292,4.11958 1.60145,6.20908 0.17305,0.93062 0.30387,1.86859 0.4558,2.80289 0.6126,4.29866 0.9418,8.63491 1.05008,12.97463 -0.10292,2.98882 -0.23044,2.37739 7.8789,-0.45085 0.59305,-0.20685 0.0272,-1.25695 0.0859,-1.88227 0.0828,-0.88148 0.18013,-1.76334 0.33838,-2.63445 0.5659,-3.11521 0.84808,-3.56783 1.88518,-6.66372 0.53854,-1.1916 1.01925,-2.4111 1.61563,-3.57484 2.0417,-3.98407 4.89387,-8.00644 8.34993,-10.89544 0.5808,-0.4855 1.22812,-0.88538 1.84218,-1.32807 0.76301,-0.36324 11.25438,-5.11357 -4.4746,-0.45143 -0.52207,0.15474 0.85947,0.69929 1.15092,1.15924 0.45977,0.72557 0.7824,1.53495 1.06934,2.34459 0.82326,2.32299 0.93915,3.73054 1.33776,6.16359 0.35362,2.80186 0.48487,5.62716 0.42275,8.4496 -0.0116,0.52687 -0.0729,2.22578 -0.21573,2.90918 -0.0286,0.137 -0.12126,0.25228 -0.18189,0.37843 2.59522,-0.14047 5.24052,0.10499 7.78568,-0.4214 0.38087,-0.0788 -0.14091,-0.76735 -0.15985,-1.15581 -0.0315,-0.64526 -0.0399,-1.29386 0.009,-1.93802 0.14226,-1.87185 0.51593,-3.79769 1.0725,-5.5862 0.34041,-1.09392 0.8007,-2.14685 1.20105,-3.22029 1.33569,-2.62413 1.75182,-3.74472 3.54745,-6.083 0.66035,-0.85991 1.39262,-1.66645 2.16428,-2.42805 1.20746,-1.19172 2.46743,-2.32618 4.18059,-2.70898 0.57971,-0.12953 1.1878,0.0221 1.78169,0.0331 -1.81643,0.31206 -3.95088,-0.13694 -5.44929,0.93618 -0.65372,0.46818 1.06485,1.22323 1.44398,1.93232 0.51437,0.96205 0.90259,1.99374 1.21413,3.03923 0.70011,2.34949 1.02549,5.11636 1.16107,7.54751 0.0729,1.30699 0.0358,2.61781 0.0537,3.92671 -0.11794,4.89952 -0.67482,9.81418 -1.97158,14.55009 -0.12736,0.46514 -0.28079,0.92271 -0.42119,1.38407 -0.42345,1.1123 -0.17498,0.65698 -0.66213,1.40819 0,0 7.70362,0.27268 7.70362,0.27268 v 0 c 0.11876,-0.88411 0.0512,-0.37251 0.19992,-1.53519 0.56261,-5.34628 1.00914,-10.70812 1.05389,-16.08765 -0.017,-1.32289 0.004,-2.64681 -0.051,-3.96862 -0.10637,-2.54452 -0.34268,-5.18308 -0.81537,-7.69022 -0.20489,-1.08669 -0.40203,-2.18492 -0.77698,-3.22526 -0.28257,-0.78401 -0.3972,-1.91797 -1.17987,-2.20419 -2.70212,-0.98819 -5.68397,-0.89687 -8.52595,-1.3453 -0.52929,0.0938 -1.09139,0.0754 -1.58786,0.2814 -1.44159,0.59829 -2.62068,1.89154 -3.61196,3.01217 -0.71529,0.80863 -1.41166,1.63784 -2.03817,2.51705 -1.62648,2.28255 -2.25605,3.71131 -3.55185,6.20338 -0.46014,1.09178 -0.96194,2.16689 -1.3804,3.27531 -0.71439,1.8923 -1.22701,3.72935 -1.70463,5.68555 -0.16079,0.65855 -0.29047,1.32432 -0.43314,1.98702 -0.0858,0.39862 -0.65143,1.11347 -0.25231,1.19698 2.54739,0.53292 5.19885,0.25445 7.79827,0.38168 -0.0696,-0.12798 -0.16786,-0.2441 -0.20879,-0.38391 -0.21032,-0.71829 -0.40436,-2.31079 -0.47427,-2.90959 -0.3306,-2.83184 -0.52201,-5.67886 -0.86754,-8.50921 -0.31814,-2.35305 -0.48983,-3.98426 -0.99037,-6.29578 -0.18528,-0.85561 -0.36685,-1.71712 -0.65984,-2.54207 -0.22573,-0.63555 -0.22612,-1.69136 -0.88861,-1.81776 -6.91949,-1.3201 -6.44612,-1.29743 -9.63047,0.92684 -0.51318,0.4765 -1.05274,0.92608 -1.53955,1.42949 -3.10955,3.21557 -5.66082,7.19387 -7.72325,11.14262 -0.62029,1.18764 -1.16266,2.41438 -1.74399,3.62154 -0.46395,1.17599 -0.96153,2.33928 -1.39187,3.52798 -1.08622,3.00043 -0.93147,3.00955 -1.81874,5.84861 -0.19024,0.60878 -1.21516,1.58353 -0.61911,1.81047 12.7472,4.85357 9.10099,2.09195 7.10204,0.52702 -0.1094,-0.33512 -0.23939,-0.66418 -0.3282,-1.00534 -0.30199,-1.16017 -0.51687,-2.52203 -0.68543,-3.68985 -0.39527,-2.73852 -0.66333,-5.49381 -0.99362,-8.24032 -0.10567,-0.94165 -0.20553,-1.88393 -0.317,-2.8249 -0.24787,-2.09248 -0.55919,-4.17978 -0.74427,-6.2795 -0.028,-0.31793 -0.0354,-0.63739 -0.0591,-0.95567 -0.008,-0.10102 -0.0231,-0.20128 -0.0347,-0.30192 z" />
  </g>
</svg>
